<svg width="58" height="78" viewBox="0 0 58 78" fill="none" xmlns="http://www.w3.org/2000/svg">
<path d="M28.125 45.3125C28.2083 45.4375 28.1875 45.8542 28.0625 46.5625C27.9792 47.2708 27.8333 48.0417 27.625 48.875C27.4583 49.7083 27.2708 50.5 27.0625 51.25C26.8958 51.9583 26.75 52.375 26.625 52.5H26C25.875 52.5 25.75 52.4792 25.625 52.4375C25.8333 54.4375 26 56.0417 26.125 57.25C26.25 58.4583 26.3125 59.125 26.3125 59.25C26.3125 59.5417 26.1667 59.9583 25.875 60.5C25.625 61.0417 25.3333 61.5417 25 62C24.6667 62.4583 24.3125 62.8125 23.9375 63.0625C23.6042 63.3542 23.375 63.375 23.25 63.125C23.0417 62.75 22.6042 61.625 21.9375 59.75C21.2708 57.875 20.5208 55.3125 19.6875 52.0625C18.8542 51.9792 17.9792 51.8958 17.0625 51.8125C16.1875 51.7292 15.2917 51.6458 14.375 51.5625C13.4583 51.4792 12.5417 51.375 11.625 51.25C10.75 51.0833 9.89583 50.9375 9.0625 50.8125C8.64583 52.6458 8.22917 54.375 7.8125 56C7.4375 57.625 7.0625 59.0417 6.6875 60.25C6.35417 61.4583 6.0625 62.4167 5.8125 63.125C5.5625 63.8333 5.375 64.1875 5.25 64.1875C4.91667 64.1875 4.58333 63.9792 4.25 63.5625C3.91667 63.1458 3.60417 62.6458 3.3125 62.0625C3.0625 61.4792 2.85417 60.875 2.6875 60.25C2.52083 59.625 2.4375 59.1042 2.4375 58.6875C2.52083 57.7292 2.625 56.7292 2.75 55.6875C2.91667 54.6458 3.04167 53.6875 3.125 52.8125C3.25 51.7708 3.375 50.75 3.5 49.75H3.25C3.08333 49.6667 2.85417 49.4792 2.5625 49.1875C2.27083 48.8958 1.97917 48.6042 1.6875 48.3125C1.39583 47.9792 1.14583 47.6667 0.9375 47.375C0.729167 47.0417 0.625 46.7917 0.625 46.625C0.625 46.5417 0.916667 46.4583 1.5 46.375C2.125 46.2917 2.9375 46.2083 3.9375 46.125C4.27083 43.625 4.625 41.0208 5 38.3125C5.375 35.6042 5.75 33.0625 6.125 30.6875C6.5 28.3125 6.85417 26.25 7.1875 24.5C7.5625 22.7083 7.875 21.4792 8.125 20.8125C8.54167 19.6875 9.27083 18.6875 10.3125 17.8125C11.3542 16.8958 12.4375 16.1458 13.5625 15.5625C14.7292 14.9375 15.8333 14.4583 16.875 14.125C17.9167 13.7917 18.6875 13.625 19.1875 13.625C19.3958 13.625 19.625 14.1042 19.875 15.0625C20.1667 15.9792 20.4583 17.2292 20.75 18.8125C21.0833 20.3958 21.4167 22.25 21.75 24.375C22.125 26.4583 22.4792 28.6667 22.8125 31C23.1458 33.3333 23.4583 35.7292 23.75 38.1875C24.0833 40.6042 24.3958 42.9167 24.6875 45.125C26.7708 45.125 27.9167 45.1875 28.125 45.3125ZM10.25 45.6875C11.5833 45.6042 12.9167 45.5417 14.25 45.5C15.5833 45.4583 16.8958 45.3958 18.1875 45.3125C17.8542 43.6875 17.4792 41.875 17.0625 39.875C16.7292 38.1667 16.3333 36.1667 15.875 33.875C15.4167 31.5833 14.9583 29.0625 14.5 26.3125C14 28.7708 13.5 31.1667 13 33.5C12.5 35.7917 12.0417 37.8542 11.625 39.6875C11.1667 41.8125 10.7083 43.8125 10.25 45.6875Z" fill="#142561"/>
<path d="M46.5625 37.5C47.5208 38 48.4792 38.5417 49.4375 39.125C50.4375 39.7083 51.3542 40.2708 52.1875 40.8125C53.0208 41.3125 53.7083 41.7917 54.25 42.25C54.8333 42.6667 55.2083 43 55.375 43.25C55.5833 43.5833 55.6875 44.1042 55.6875 44.8125C55.6875 45.4792 55.625 46.2292 55.5 47.0625C55.4167 47.8542 55.2708 48.6458 55.0625 49.4375C54.8542 50.1875 54.625 50.7917 54.375 51.25C54.0833 51.8333 53.4167 52.5833 52.375 53.5C51.375 54.4167 50.25 55.3333 49 56.25C47.75 57.1667 46.5208 57.9792 45.3125 58.6875C44.1458 59.3958 43.25 59.8333 42.625 60C42.1667 60.125 41.4792 60.25 40.5625 60.375C39.6875 60.5 38.7708 60.6042 37.8125 60.6875C36.8542 60.7708 35.9792 60.8333 35.1875 60.875C34.4375 60.875 33.9792 60.8333 33.8125 60.75C33.4792 60.5417 33.1875 60.2292 32.9375 59.8125C32.7292 59.3958 32.625 58.8542 32.625 58.1875C32.7083 56.7292 32.875 55.7292 33.125 55.1875C33.2083 55.0625 33.3125 55 33.4375 55C33.5625 54.9583 33.7708 54.9375 34.0625 54.9375C34.3542 54.9375 34.7292 54.9375 35.1875 54.9375C35.6458 54.9375 36.25 54.9167 37 54.875C36.7917 52.75 36.6042 50.7292 36.4375 48.8125C36.2708 46.8958 36.125 45.2083 36 43.75C35.8333 42.0417 35.7083 40.4375 35.625 38.9375C35.5417 37.4792 35.4167 35.8542 35.25 34.0625C35.125 32.5208 34.9792 30.7292 34.8125 28.6875C34.6458 26.6458 34.4583 24.4375 34.25 22.0625C33.875 22.0625 33.4375 22.0625 32.9375 22.0625C32.4375 22.0625 31.9375 22.0625 31.4375 22.0625C30.9792 22.0208 30.5833 21.9792 30.25 21.9375C29.875 21.8542 29.6458 21.75 29.5625 21.625C29.3958 21.375 29.2708 20.9167 29.1875 20.25C29.1042 19.5417 29.0625 18.8542 29.0625 18.1875C29.0625 17.4792 29.1875 16.7917 29.4375 16.125C29.6875 15.4167 29.9792 14.9583 30.3125 14.75C30.3958 14.7083 30.7292 14.7083 31.3125 14.75C31.8958 14.75 32.6042 14.8125 33.4375 14.9375C34.2708 15.0208 35.1667 15.1458 36.125 15.3125C37.125 15.4375 38.0625 15.5833 38.9375 15.75C39.8125 15.875 40.5833 16 41.25 16.125C41.9167 16.25 42.375 16.3333 42.625 16.375C43.0417 16.4583 43.8333 16.6875 45 17.0625C46.2083 17.3958 47.5 17.7917 48.875 18.25C50.25 18.7083 51.5625 19.2292 52.8125 19.8125C54.0625 20.3542 54.9375 20.8958 55.4375 21.4375C55.6458 21.6458 55.8333 22.2292 56 23.1875C56.2083 24.1458 56.3542 25.2083 56.4375 26.375C56.5625 27.5417 56.6042 28.6458 56.5625 29.6875C56.5625 30.6875 56.4583 31.3542 56.25 31.6875C56.0833 31.9375 55.5 32.375 54.5 33C53.5 33.625 52.3958 34.2708 51.1875 34.9375C49.8125 35.6875 48.2708 36.5417 46.5625 37.5ZM41.8125 36.25C42.3542 36 43.0833 35.5 44 34.75C44.9583 34 45.8958 33.1667 46.8125 32.25C47.7708 31.2917 48.5833 30.3333 49.25 29.375C49.9583 28.375 50.3125 27.5208 50.3125 26.8125C50.3125 26.6042 50.0833 26.3333 49.625 26C49.2083 25.6667 48.625 25.3333 47.875 25C47.125 24.6667 46.2292 24.3333 45.1875 24C44.1875 23.625 43.1042 23.2917 41.9375 23L41.8125 36.25ZM41.75 54.1875C42.9167 53.9375 44.0208 53.5417 45.0625 53C46.1042 52.4583 47.0208 51.875 47.8125 51.25C48.6042 50.5833 49.2292 49.9167 49.6875 49.25C50.1458 48.5833 50.375 47.9792 50.375 47.4375C50.375 46.8958 50.0208 46.2917 49.3125 45.625C48.6458 44.9583 47.8333 44.2917 46.875 43.625C45.9583 42.9583 45.0208 42.3542 44.0625 41.8125C43.1042 41.2708 42.3542 40.875 41.8125 40.625L41.75 54.1875Z" fill="#142561"/>
</svg>
